<?xml version="1.0" encoding="utf-8"?>
<!-- Generator: Adobe Illustrator 16.0.0, SVG Export Plug-In . SVG Version: 6.00 Build 0)  -->
<!DOCTYPE svg PUBLIC "-//W3C//DTD SVG 1.1//EN" "http://www.w3.org/Graphics/SVG/1.1/DTD/svg11.dtd">
<svg version="1.1" id="Layer_1" xmlns="http://www.w3.org/2000/svg" xmlns:xlink="http://www.w3.org/1999/xlink" x="0px" y="0px"
	 width="14px" height="20.075px" viewBox="0 0 14 20.075" enable-background="new 0 0 14 20.075" xml:space="preserve">
<g>
	<path fill="#FE599A" d="M6.75,16.537c0.188-0.164,0.469-0.162,0.657,0.002l2.196,1.931v-4.986C8.782,13.813,7.909,14,7.016,14
		C6.14,14,5.29,13.835,4.5,13.533v4.949L6.75,16.537z"/>
	<path fill="#FFFFFF" d="M7.002,1.018c-1.159,0-2.287,0.335-3.263,0.971C2.399,2.862,1.479,4.205,1.148,5.77
		c-0.331,1.565-0.032,3.166,0.841,4.506C3.099,11.981,4.978,13,7.016,13c1.158,0,2.286-0.336,3.262-0.971
		c0.99-0.645,1.761-1.557,2.228-2.639c0.802-1.848,0.623-3.96-0.477-5.65C10.919,2.035,9.04,1.018,7.002,1.018z M10.462,5.56
		L6.551,9.683L4.305,7.398C4.111,7.202,4.114,6.885,4.311,6.691C4.506,6.498,4.825,6.5,5.018,6.697l1.521,1.546l3.199-3.372
		c0.19-0.2,0.507-0.207,0.706-0.019C10.645,5.043,10.652,5.359,10.462,5.56z"/>
	<path fill="#404553" d="M12.866,3.194C11.571,1.205,9.38,0.018,7.002,0.018c-1.353,0-2.67,0.392-3.809,1.133
		C1.629,2.169,0.556,3.736,0.169,5.563c-0.386,1.827-0.038,3.695,0.981,5.259c0.608,0.935,1.419,1.684,2.349,2.225v6.528
		c0,0.195,0.114,0.373,0.292,0.455c0.179,0.081,0.387,0.052,0.535-0.077l2.747-2.375l2.699,2.373
		c0.093,0.081,0.211,0.124,0.33,0.124c0.07,0,0.14-0.015,0.206-0.045c0.179-0.08,0.294-0.259,0.294-0.455v-6.587
		c0.071-0.043,0.148-0.075,0.219-0.121c1.156-0.752,2.056-1.817,2.601-3.08C14.357,7.631,14.149,5.167,12.866,3.194z M9.604,18.469
		l-2.196-1.931c-0.188-0.164-0.469-0.166-0.657-0.002L4.5,18.482v-4.949C5.29,13.835,6.14,14,7.016,14
		c0.894,0,1.767-0.187,2.588-0.517V18.469z M12.505,9.39c-0.467,1.083-1.237,1.995-2.228,2.639C9.302,12.664,8.174,13,7.016,13
		c-2.038,0-3.917-1.019-5.027-2.723C1.116,8.936,0.817,7.335,1.148,5.77C1.479,4.205,2.399,2.862,3.74,1.989
		c0.976-0.635,2.104-0.971,3.263-0.971c2.038,0,3.917,1.017,5.026,2.721C13.128,5.43,13.307,7.542,12.505,9.39z"/>
	<path fill="#404553" d="M9.737,4.872L6.539,8.243L5.018,6.697C4.825,6.5,4.506,6.498,4.311,6.691
		c-0.197,0.194-0.2,0.51-0.006,0.707l2.247,2.284l3.911-4.123c0.19-0.201,0.183-0.517-0.019-0.707
		C10.244,4.665,9.928,4.672,9.737,4.872z"/>
</g>
</svg>
