<svg xmlns="http://www.w3.org/2000/svg" width="62.753" height="22.126" viewBox="0 0 62.753 22.126">
  <g id="Group_2147" data-name="Group 2147" transform="translate(5.5 4.553)">
    <rect id="Rectangle_18" data-name="Rectangle 18" width="62.753" height="21.285" rx="10.642" transform="translate(-5.5 -3.712)" fill="#fe599a"/>
    <text id="Title_TAG:H1_" data-name="Title [TAG:H1]" transform="translate(14.415 9.447)" fill="#fff" font-size="12" font-family="DINNextLTW23-Medium, DIN Next LT W23" font-weight="500"><tspan x="-12" y="0">سريع</tspan></text>
    <g id="trusted_shipping_usp_v2" transform="translate(20.161 -13.118)">
      <path id="Path_1989" data-name="Path 1989" d="M24.053,24.313h-.8V16.122h3.521l3.4,2.868v5.323h-.6" transform="translate(0.488 0.09)" fill="#fe599a" fill-rule="evenodd"/>
      <path id="Path_1990" data-name="Path 1990" d="M24.053,24.313h-.8V16.122h3.521l3.4,2.868v5.323h-.6" transform="translate(1.822 0.09)" fill="none" stroke="#fff" stroke-linecap="round" stroke-linejoin="round" stroke-width="1"/>
      <path id="Path_1991" data-name="Path 1991" d="M24.75,17.7h1.761L28.2,19.136v1.021H24.75Z" transform="translate(1.876 0.148)" fill="none" stroke="#fff" stroke-linecap="round" stroke-linejoin="round" stroke-width="1" fill-rule="evenodd"/>
      <rect id="Rectangle_36" data-name="Rectangle 36" width="11" height="9.9" transform="translate(12.484 14.334)" fill="#fe599a"/>
      <path id="Path_1992" data-name="Path 1992" d="M14.457,24.385H12.521V21.743m0-5.009V14.146H23.648V24.385H20.262" transform="translate(0.097 0.018)" fill="#fe599a" fill-rule="evenodd"/>
      <path id="Path_1993" data-name="Path 1993" d="M14.475,24.921a.518.518,0,0,0,0-1.036ZM12.539,24.4h-.518a.518.518,0,0,0,.518.518Zm.518-2.641a.518.518,0,1,0-1.036,0Zm-1.036-5.009a.518.518,0,1,0,1.036,0Zm.518-2.588v-.518a.518.518,0,0,0-.518.518Zm11.127,0h.518a.518.518,0,0,0-.518-.518Zm0,10.238v.518a.518.518,0,0,0,.518-.518Zm-3.386-.518a.518.518,0,0,0,0,1.036Zm-5.8,0H12.539v1.036h1.936Zm-1.418.518V21.762H12.021V24.4Zm0-7.651V14.165H12.021v2.588Zm-.518-2.069H23.666V13.646H12.539Zm10.609-.518V24.4h1.036V14.165Zm.518,9.72H20.28v1.036h3.386Z" transform="translate(0.078)" fill="#fff"/>
      <path id="Path_1994" data-name="Path 1994" d="M17.064,26.115a1.638,1.638,0,1,0-1.648-1.638A1.643,1.643,0,0,0,17.064,26.115Z" transform="translate(0.202 0.335)" fill="#fe599a" stroke="#fff" stroke-linecap="round" stroke-linejoin="round" stroke-width="1" fill-rule="evenodd"/>
      <path id="Path_1995" data-name="Path 1995" d="M26.677,26.115a1.638,1.638,0,1,0-1.648-1.638A1.643,1.643,0,0,0,26.677,26.115Z" transform="translate(1.887 0.335)" fill="#fe599a" stroke="#fff" stroke-linecap="round" stroke-linejoin="round" stroke-width="1" fill-rule="evenodd"/>
      <path id="Path_1996" data-name="Path 1996" d="M10.533,17.9h5.1" transform="translate(0.024 0.155)" fill="none" stroke="#fff" stroke-linecap="round" stroke-linejoin="round" stroke-width="1"/>
      <path id="Path_1997" data-name="Path 1997" d="M9.874,19.612H12.25" transform="translate(0 0.218)" fill="none" stroke="#fff" stroke-linecap="round" stroke-linejoin="round" stroke-width="1"/>
    </g>
  </g>
</svg>
