<svg xmlns="http://www.w3.org/2000/svg" width="19.432" height="18.738" viewBox="0 0 19.432 18.738">
  <path id="Path_2011" data-name="Path 2011" d="M19.656,10.746H15.492V6.582A2.084,2.084,0,0,0,13.41,4.5H11.93a1.4,1.4,0,0,0-1.374,1.192L9.969,9.8,7.487,13.522H3v9.716H17.574a4.863,4.863,0,0,0,4.858-4.858V13.522A2.779,2.779,0,0,0,19.656,10.746ZM7.164,21.85H4.388V14.91H7.164Zm13.88-3.47a3.474,3.474,0,0,1-3.47,3.47H8.552V14.426l2.747-4.12.632-4.418h1.48a.694.694,0,0,1,.694.694v5.552h5.552a1.389,1.389,0,0,1,1.388,1.388Z" transform="translate(-3 -4.5)"/>
</svg>
