<svg id="question-circle-o" xmlns="http://www.w3.org/2000/svg" width="32" height="32" viewBox="0 0 32 32">
  <path id="Path_2018" data-name="Path 2018" d="M18.333,22.333v3.333a.642.642,0,0,1-.667.667H14.333a.642.642,0,0,1-.667-.667V22.333a.642.642,0,0,1,.667-.667h3.333a.642.642,0,0,1,.667.667ZM23.667,12a5.309,5.309,0,0,1-.312,1.875,3.8,3.8,0,0,1-.948,1.438,9.8,9.8,0,0,1-1.083.917q-.448.312-1.24.75-.667.375-.969.583a2.635,2.635,0,0,0-.542.5.943.943,0,0,0-.24.6v.667a.642.642,0,0,1-.667.667H14.333a.642.642,0,0,1-.667-.667V17.917a3.981,3.981,0,0,1,.219-1.344,3.746,3.746,0,0,1,.5-.99,3.429,3.429,0,0,1,.813-.74,8.554,8.554,0,0,1,.854-.531q.323-.167.927-.437a8.1,8.1,0,0,0,1.563-.9A1.249,1.249,0,0,0,19,11.958a1.777,1.777,0,0,0-.906-1.49,3.47,3.47,0,0,0-1.99-.615,3.392,3.392,0,0,0-1.979.563,9.529,9.529,0,0,0-1.667,1.729.614.614,0,0,1-.521.25.641.641,0,0,1-.4-.125l-2.25-1.708a.6.6,0,0,1-.25-.417.636.636,0,0,1,.1-.479,8.122,8.122,0,0,1,7.271-4,7.689,7.689,0,0,1,4.969,1.865A5.6,5.6,0,0,1,23.667,12ZM16,2.667a12.961,12.961,0,0,0-5.177,1.063,13.149,13.149,0,0,0-7.094,7.094,13.144,13.144,0,0,0,0,10.354,13.149,13.149,0,0,0,7.094,7.094,13.144,13.144,0,0,0,10.354,0,13.149,13.149,0,0,0,7.094-7.094,13.144,13.144,0,0,0,0-10.354,13.149,13.149,0,0,0-7.094-7.094A12.961,12.961,0,0,0,16,2.667ZM32,16a15.652,15.652,0,0,1-2.146,8.031,15.928,15.928,0,0,1-5.823,5.823A15.652,15.652,0,0,1,16,32a15.652,15.652,0,0,1-8.031-2.146,15.928,15.928,0,0,1-5.823-5.823A15.652,15.652,0,0,1,0,16,15.652,15.652,0,0,1,2.146,7.969,15.928,15.928,0,0,1,7.969,2.146,15.652,15.652,0,0,1,16,0a15.652,15.652,0,0,1,8.031,2.146,15.928,15.928,0,0,1,5.823,5.823A15.652,15.652,0,0,1,32,16Z" fill="#c10e79"/>
</svg>
