<svg id="securityalt" xmlns="http://www.w3.org/2000/svg" width="31.954" height="31.954" viewBox="0 0 31.954 31.954">
  <path id="Path_2017" data-name="Path 2017" d="M16.021,31.954a39.049,39.049,0,0,1-4.743-2.777Q9.156,27.71,7.565,26.368a14.477,14.477,0,0,1-2.793-3.183q-1.2-1.841-2-3.2a13.224,13.224,0,0,1-1.326-3.573Q.918,14.2.637,12.778A30.791,30.791,0,0,1,.216,8.706Q.076,6.054.06,4.556T.044,0q0,.811,2.34,1.4A23.29,23.29,0,0,0,8.033,2,23.29,23.29,0,0,0,13.681,1.4q2.34-.593,2.34-1.4,0,.811,2.34,1.4A23.29,23.29,0,0,0,24.01,2,23.29,23.29,0,0,0,29.658,1.4Q32,.811,32,0q0,3.058-.016,4.556t-.156,4.15a30.791,30.791,0,0,1-.421,4.072q-.281,1.42-.811,3.635a13.224,13.224,0,0,1-1.326,3.573q-.8,1.357-2,3.2a14.477,14.477,0,0,1-2.793,3.183q-1.591,1.342-3.713,2.808a39.049,39.049,0,0,1-4.743,2.777Zm0-27.96q0,.811-1.763,1.4a13.331,13.331,0,0,1-4.228.593,19.909,19.909,0,0,1-3.339-.281,10.53,10.53,0,0,1-2.652-.749q0,2.465.062,3.963T4.4,12.5a16.044,16.044,0,0,0,.7,3.417,23.557,23.557,0,0,0,1.342,3.027,11.573,11.573,0,0,0,2.138,2.933,26.163,26.163,0,0,0,3.136,2.59,27.934,27.934,0,0,0,4.306,2.5ZM16.021,0Z" transform="translate(-0.044)" fill="#c10e79"/>
</svg>
