<svg xmlns="http://www.w3.org/2000/svg" width="30" height="27.925" viewBox="0 0 30 27.925">
  <g id="Group_2144" data-name="Group 2144" transform="translate(-1 -2.075)">
    <path id="Path_1985" data-name="Path 1985" d="M30,9.43a.92.92,0,0,1-.36-.07L16,4.07,2.36,9.36a1,1,0,0,1-1.29-.57A.99.99,0,0,1,1.64,7.5L15.28,2.21a2.014,2.014,0,0,1,1.45,0L30.36,7.5A1,1,0,0,1,30,9.43Z"/>
    <path id="Path_1986" data-name="Path 1986" d="M16,30a.98.98,0,0,1-.41-.09L9.35,27.14a1,1,0,1,1,.81-1.83L16,27.91l13-5.77V9.92L16.38,15.1a1,1,0,0,1-.76,0L3,9.92V22.14l2.93,1.3a1,1,0,1,1-.81,1.83L1.59,23.7A1,1,0,0,1,1,22.79V8.43a1,1,0,0,1,.44-.83,1.015,1.015,0,0,1,.94-.1L16,13.09,29.62,7.5a1.013,1.013,0,0,1,.94.09,1.029,1.029,0,0,1,.44.84V22.79a.987.987,0,0,1-.59.91l-14,6.21A.98.98,0,0,1,16,30Z"/>
    <path id="Path_1987" data-name="Path 1987" d="M16,29.53a1,1,0,0,1-1-1V14.17a1,1,0,0,1,2,0V28.53a1,1,0,0,1-1,1Z"/>
    <path id="Path_1988" data-name="Path 1988" d="M23.54,19.48a1,1,0,0,1-1-1V11.99L8.83,6.85a1,1,0,1,1,.7-1.88l14.36,5.38a1,1,0,0,1,.65.94v7.18a1,1,0,0,1-1,1.01Z"/>
  </g>
</svg>
