<?xml version="1.0" encoding="utf-8"?>
<!-- Generator: Adobe Illustrator 16.0.0, SVG Export Plug-In . SVG Version: 6.00 Build 0)  -->
<!DOCTYPE svg PUBLIC "-//W3C//DTD SVG 1.1//EN" "http://www.w3.org/Graphics/SVG/1.1/DTD/svg11.dtd">
<svg version="1.1" id="Layer_1" xmlns="http://www.w3.org/2000/svg" xmlns:xlink="http://www.w3.org/1999/xlink" x="0px" y="0px"
	 width="18.383px" height="18.223px" viewBox="0 0 18.383 18.223" enable-background="new 0 0 18.383 18.223" xml:space="preserve">
<g>
	<path fill="#FE599A" d="M10.34,14.828c0.905,0,1.787-0.262,2.55-0.759c0.771-0.503,1.371-1.215,1.735-2.059
		c0.626-1.444,0.486-3.094-0.373-4.413c-0.867-1.329-2.333-2.123-3.923-2.123c-0.905,0-1.786,0.263-2.548,0.759
		C6.735,6.917,6.017,7.966,5.76,9.188c-0.258,1.223-0.024,2.472,0.659,3.518C7.285,14.035,8.751,14.828,10.34,14.828z M7.334,9.745
		c0.196-0.194,0.513-0.192,0.707,0.006l1.521,1.546l3.203-3.372c0.19-0.2,0.508-0.207,0.707-0.019c0.2,0.19,0.208,0.507,0.018,0.707
		l-3.915,4.123l-2.247-2.284C7.135,10.255,7.138,9.939,7.334,9.745z"/>
	<path fill="#333848" d="M13.436,14.907c0.937-0.611,1.666-1.476,2.107-2.499c0.76-1.753,0.59-3.755-0.453-5.356
		c-1.053-1.614-2.832-2.577-4.761-2.577c-1.099,0-2.169,0.319-3.094,0.921C5.965,6.225,5.094,7.498,4.781,8.982
		s-0.029,3,0.799,4.271c1.052,1.613,2.832,2.576,4.76,2.576C11.44,15.828,12.51,15.51,13.436,14.907z M5.76,9.188
		c0.257-1.222,0.976-2.271,2.022-2.953c0.762-0.497,1.643-0.759,2.548-0.759c1.59,0,3.056,0.794,3.923,2.123
		c0.859,1.319,0.999,2.968,0.373,4.413c-0.364,0.844-0.964,1.556-1.735,2.059c-0.763,0.497-1.645,0.759-2.55,0.759
		c-1.589,0-3.055-0.793-3.922-2.123C5.736,11.659,5.502,10.41,5.76,9.188z"/>
	<path fill="#333848" d="M9.575,12.737l3.915-4.123c0.19-0.2,0.183-0.517-0.018-0.707c-0.199-0.188-0.517-0.181-0.707,0.019
		l-3.203,3.372L8.042,9.751c-0.194-0.198-0.511-0.2-0.707-0.006c-0.197,0.193-0.2,0.51-0.006,0.707L9.575,12.737z"/>
	<path fill="#333848" d="M10.305,2.065H1.912l1.023-1c0.197-0.193,0.201-0.509,0.008-0.707C2.751,0.161,2.433,0.157,2.235,0.35
		l-2.237,2.187L2.208,5.08c0.099,0.114,0.238,0.172,0.377,0.172c0.116,0,0.233-0.041,0.328-0.123
		c0.208-0.181,0.231-0.497,0.05-0.705l-1.181-1.36h8.523c3.903,0,7.079,3.176,7.08,7.079c0,3.903-3.176,7.079-7.079,7.079H7.885
		c-0.276,0-0.5,0.224-0.5,0.5s0.224,0.5,0.5,0.5h2.421c4.455,0,8.079-3.625,8.079-8.08C18.384,5.689,14.759,2.065,10.305,2.065z"/>
	<path fill="#333848" d="M5.467,17.223H3.479c-0.276,0-0.5,0.224-0.5,0.5s0.224,0.5,0.5,0.5h1.988c0.276,0,0.5-0.224,0.5-0.5
		S5.743,17.223,5.467,17.223z"/>
</g>
</svg>
