<svg id="play-circle" xmlns="http://www.w3.org/2000/svg" width="100.677" height="100.677" viewBox="0 0 100.677 100.677">
  <g id="Group_147" data-name="Group 147">
    <path id="Path_67" data-name="Path 67" d="M50.339,94.385A44.046,44.046,0,1,0,6.292,50.339,44.046,44.046,0,0,0,50.339,94.385Zm0,6.292a50.339,50.339,0,1,1,50.339-50.339A50.339,50.339,0,0,1,50.339,100.677Z" fill="#fff"/>
  </g>
  <path id="Path_68" data-name="Path 68" d="M44.614,15.348a3.146,3.146,0,0,0-3.272.239L19.319,31.318a3.146,3.146,0,0,0,0,5.122L41.342,52.17a3.146,3.146,0,0,0,4.977-2.561V18.148a3.146,3.146,0,0,0-1.705-2.8Z" transform="translate(16.604 16.46)" fill="#fe599a"/>
</svg>
