<svg xmlns="http://www.w3.org/2000/svg" width="28.918" height="20.314" viewBox="0 0 28.918 20.314">
  <path id="Path_172" data-name="Path 172" d="M14.552,6h.161c1.486.005,9.014.06,11.044.606a3.633,3.633,0,0,1,2.558,2.567,16.367,16.367,0,0,1,.4,2.534l.018.188.04.47.014.188c.117,1.652.132,3.2.134,3.537v.136c0,.351-.018,2-.148,3.723l-.014.19-.016.188a17.9,17.9,0,0,1-.425,2.816,3.628,3.628,0,0,1-2.558,2.567c-2.1.564-10.066.6-11.17.606H14.33c-.559,0-2.868-.011-5.29-.094l-.307-.011L8.575,26.2l-.309-.013-.309-.013a29.055,29.055,0,0,1-4.8-.47A3.628,3.628,0,0,1,.6,23.139a17.871,17.871,0,0,1-.425-2.816l-.014-.19-.014-.188Q.014,18.108,0,16.265v-.222c0-.389.018-1.732.116-3.214l.013-.186.005-.094.014-.188.04-.47L.206,11.7A16.332,16.332,0,0,1,.6,9.169,3.628,3.628,0,0,1,3.161,6.6a29.671,29.671,0,0,1,4.8-.47l.307-.013.311-.011L8.732,6.1l.309-.013Q11.621,6.008,14.2,6h.349Zm-2.984,5.8v8.708l7.514-4.352Z" transform="translate(0 -5.997)" fill="#ff3a3a"/>
</svg>
