<svg id="phone" xmlns="http://www.w3.org/2000/svg" width="38.875" height="38.875" viewBox="0 0 38.875 38.875">
  <path id="Path_72" data-name="Path 72" d="M42.128,8.4l-.064-.04-8.118-4L25.184,16.048l4.031,5.375a8.3,8.3,0,0,1-7.792,7.792l-5.375-4.031L4.365,33.946,8.331,42l.033.068.04.064A2.352,2.352,0,0,0,10.41,43.24H12.5A30.735,30.735,0,0,0,43.24,12.5V10.41A2.352,2.352,0,0,0,42.128,8.4ZM40.24,12.5A27.766,27.766,0,0,1,12.5,40.24H10.81L8.156,34.853l7.892-5.919,4.394,3.3h.5A11.3,11.3,0,0,0,32.229,20.941v-.5l-3.3-4.394,5.918-7.891L40.24,10.81Z" transform="translate(-4.365 -4.365)" fill="#fff"/>
</svg>
