<svg xmlns="http://www.w3.org/2000/svg" xmlns:xlink="http://www.w3.org/1999/xlink" width="20.318" height="20.314" viewBox="0 0 20.318 20.314">
  <defs>
    <radialGradient id="radial-gradient" cx="0.018" cy="0.908" r="1.446" gradientTransform="matrix(0.998, -0.052, 0.044, 0.849, -0.001, 0.008)" gradientUnits="objectBoundingBox">
      <stop offset="0" stop-color="#fed576"/>
      <stop offset="0.263" stop-color="#f47133"/>
      <stop offset="0.609" stop-color="#bc3081"/>
      <stop offset="1" stop-color="#4c63d2"/>
    </radialGradient>
    <radialGradient id="radial-gradient-2" cx="0.018" cy="0.908" r="1.446" gradientTransform="matrix(0.999, -0.052, 0.044, 0.849, -0.001, 0.008)" xlink:href="#radial-gradient"/>
  </defs>
  <g id="Symbol" transform="translate(-11.2 -10.3)">
    <g id="Group_203" data-name="Group 203" transform="translate(11.2 10.3)">
      <path id="Path_1923" data-name="Path 1923" d="M14.706,10.833A5.21,5.21,0,0,0,11.733,13.8a7.428,7.428,0,0,0-.471,2.465c-.05,1.082-.062,1.429-.062,4.188s.012,3.106.062,4.188a7.535,7.535,0,0,0,.471,2.465,5.2,5.2,0,0,0,2.973,2.973,7.428,7.428,0,0,0,2.465.471c1.082.05,1.429.062,4.188.062s3.106-.012,4.188-.062a7.535,7.535,0,0,0,2.465-.471,5.2,5.2,0,0,0,2.973-2.973,7.428,7.428,0,0,0,.471-2.465c.05-1.082.062-1.429.062-4.188s-.012-3.106-.062-4.188a7.535,7.535,0,0,0-.471-2.465,5.188,5.188,0,0,0-2.969-2.969,7.428,7.428,0,0,0-2.465-.471c-1.082-.05-1.429-.062-4.188-.062s-3.106.012-4.188.062A7.33,7.33,0,0,0,14.706,10.833Zm10.758,1.355a5.6,5.6,0,0,1,1.887.351,3.361,3.361,0,0,1,1.929,1.929,5.6,5.6,0,0,1,.351,1.887c.05,1.07.058,1.392.058,4.1s-.012,3.035-.058,4.1a5.6,5.6,0,0,1-.351,1.887,3.361,3.361,0,0,1-1.929,1.929,5.6,5.6,0,0,1-1.887.351c-1.07.05-1.392.058-4.1.058s-3.035-.012-4.1-.058a5.6,5.6,0,0,1-1.887-.351,3.361,3.361,0,0,1-1.929-1.929,5.6,5.6,0,0,1-.351-1.887c-.05-1.07-.058-1.392-.058-4.1s.012-3.035.058-4.1a5.6,5.6,0,0,1,.351-1.887,3.361,3.361,0,0,1,1.929-1.929,5.6,5.6,0,0,1,1.887-.351c1.07-.05,1.392-.058,4.1-.058S24.395,12.138,25.464,12.187Z" transform="translate(-11.2 -10.3)" fill="url(#radial-gradient)"/>
      <path id="Path_1924" data-name="Path 1924" d="M130.9,135.216A5.216,5.216,0,1,0,136.116,130,5.216,5.216,0,0,0,130.9,135.216Zm8.6,0a3.386,3.386,0,1,1-3.386-3.386A3.386,3.386,0,0,1,139.5,135.216Z" transform="translate(-125.957 -125.057)" fill="url(#radial-gradient-2)"/>
      <circle id="Ellipse_15" data-name="Ellipse 15" cx="1.218" cy="1.218" r="1.218" transform="translate(14.367 3.519)" fill="#654c9f"/>
    </g>
  </g>
</svg>
