<svg xmlns="http://www.w3.org/2000/svg" xmlns:xlink="http://www.w3.org/1999/xlink" width="143.822" height="61" viewBox="0 0 143.822 61">
  <defs>
    <clipPath id="clip-path">
      <rect id="Rectangle_2" data-name="Rectangle 2" width="143.822" height="61" fill="none"/>
    </clipPath>
  </defs>
  <g id="Group_2" data-name="Group 2" transform="translate(0 0)">
    <g id="Group_1" data-name="Group 1" transform="translate(0 0)" clip-path="url(#clip-path)">
      <g id="Group_23" data-name="Group 23" transform="translate(0.001 0)">
        <path id="Path_1" data-name="Path 1" d="M9505.4,61c-2.966-1.526-6.575-4.12-7.185-7.842-1.4-8.551,5.988-12.042,10.344-16.846a24.979,24.979,0,0,0,5.747-12.781c1.444-12.448-7.6-18.646-15.228-23.531a11.325,11.325,0,0,1,4.31,7.844c1.485,15.836-16.415,20.8-13.506,36.889-1.143-1.653-.793-4.809-1.436-6.969-4.015,11.081,4.667,19.492,11.493,22.365-2.04-1.522-4.718-3.939-4.023-7.261,2.378,3.31,5.173,7.745,9.483,8.132" transform="translate(-9380.069 -0.003)" fill="#fff"/>
        <path id="Path_2" data-name="Path 2" d="M11093.451,822.835c1.1-12.715-6.826-22.09-13.5-27.014,3.421,3.738,5.479,10.3,4.884,17.139a30.219,30.219,0,0,0,1.439-4.938,16.949,16.949,0,0,0,2.873,8.714c-1.107,2.219-.937,4.837-1.151,7.552-7.576-.485-12.681,2.077-12.929,8.133-.266,6.461,6.575,8.341,2.586,12.2,2.434-.346,3.023-2.558,4.022-4.358a62.272,62.272,0,0,1-1.15,6.68,5.949,5.949,0,0,0,2.2-2.811l2.114-2.708c3.647-5.688,7.914-10.391,8.621-18.59" transform="translate(-10949.732 -786.816)" fill="#fff"/>
        <path id="Path_3" data-name="Path 3" d="M9.806,584.628a4.7,4.7,0,0,0-3.647-1.715l-6.091.038v25.762h3.58v-7.794H6.812a4,4,0,0,0,3.323-1.5,6.188,6.188,0,0,0,1.188-3.954v-6.7a6.019,6.019,0,0,0-1.516-4.13m-1.927,9.781a5.576,5.576,0,0,1-.345,2.3,1.777,1.777,0,0,1-1.754.976s-.712-.015-2.133-.041v-11.3H5.218a2.626,2.626,0,0,1,2.254.779,5.235,5.235,0,0,1,.406,2.533Z" transform="translate(-0.068 -576.317)" fill="#fff"/>
        <path id="Path_4" data-name="Path 4" d="M1151.078,649.4V645.77h-6.85v-7.639h6.85v-3.623h-6.85v-6.821h6.85v-3.624l-.035,0-10.393.041V649.4h10.427Z" transform="translate(-1127.745 -616.999)" fill="#fff"/>
        <path id="Path_5" data-name="Path 5" d="M2217.569,653.01v-13.8l3.612,13.8h3.649V627.717h-3.306v14.135l-3.7-14.135h-3.665v.062l.1,25.231Z" transform="translate(-2189.107 -620.614)" fill="#fff"/>
        <path id="Path_6" data-name="Path 6" d="M3361.43,615.636a4.7,4.7,0,0,0-3.65-1.714l-6.091.038v25.411h6.747a4,4,0,0,0,3.32-1.5,6.225,6.225,0,0,0,1.188-3.961V619.774a6.064,6.064,0,0,0-1.513-4.137m-1.929,17.219a5.648,5.648,0,0,1-.342,2.306,1.808,1.808,0,0,1-1.774.975l-2.252-.038V617.352h1.7a2.626,2.626,0,0,1,2.254.776,5.267,5.267,0,0,1,.418,2.54Z" transform="translate(-3313.763 -606.975)" fill="#fff"/>
        <path id="Path_7" data-name="Path 7" d="M4533.993,629.439h.9a4.7,4.7,0,0,0,3.649-1.717,5.99,5.99,0,0,0,1.516-4.124V603.521h-3.442v19.025q0,3.264-2.1,3.268-2.239,0-2.237-3.268V603.521h-3.44V623.6a6,6,0,0,0,1.514,4.124,4.7,4.7,0,0,0,3.646,1.717" transform="translate(-4477.586 -596.692)" fill="#fff"/>
        <path id="Path_8" data-name="Path 8" d="M5682.771,653.01v-3.625h-6.848V627.717h-3.58V653.01h10.428Z" transform="translate(-5608.157 -620.614)" fill="#fff"/>
        <path id="Path_9" data-name="Path 9" d="M6713.068,649.4V624.1l-3.578-.041V649.4h3.578Z" transform="translate(-6633.567 -616.999)" fill="#fff"/>
        <path id="Path_10" data-name="Path 10" d="M7235.926,653.01v-13.8l3.613,13.8h3.649V627.717h-3.305v14.135l-3.7-14.135h-3.667l.1,25.293Z" transform="translate(-7150.678 -620.614)" fill="#fff"/>
        <path id="Path_11" data-name="Path 11" d="M8348.774,624.136v25.293H8359.2V645.8h-6.848v-7.64h6.848v-3.623h-6.848V627.72h6.848V624.1l-.034,0Z" transform="translate(-8254.303 -617.033)" fill="#fff"/>
      </g>
      <path id="Path_12" data-name="Path 12" d="M11895.671,94.646a3.638,3.638,0,0,1-.541,1.922,3.877,3.877,0,0,1-1.475,1.4,4.208,4.208,0,0,1-4.027,0,3.88,3.88,0,0,1-1.476-1.4,3.678,3.678,0,0,1,0-3.841,3.874,3.874,0,0,1,1.476-1.406,4.208,4.208,0,0,1,4.027,0,3.871,3.871,0,0,1,1.475,1.406,3.642,3.642,0,0,1,.541,1.919m-.781,0a2.915,2.915,0,0,0-.953-2.191,3.363,3.363,0,0,0-4.6,0,3,3,0,0,0,0,4.381,3.363,3.363,0,0,0,4.6,0,2.915,2.915,0,0,0,.953-2.191m-5.077-2.052h1.927a1.805,1.805,0,0,1,1.185.314,1.052,1.052,0,0,1,.367.843,1.016,1.016,0,0,1-.28.714,1.674,1.674,0,0,1-.881.438,1.2,1.2,0,0,1,.364.191,1.967,1.967,0,0,1,.342.417q.012.02.7,1.187h-1.267a9.223,9.223,0,0,0-.829-1.4.591.591,0,0,0-.422-.229.808.808,0,0,0-.132.015V96.7h-1.071Zm1.071,1.74h.465a1.12,1.12,0,0,0,.654-.143.443.443,0,0,0,.19-.37.451.451,0,0,0-.183-.37,1.022,1.022,0,0,0-.62-.143h-.507Z" transform="translate(-11753.094 -89.78)" fill="#fff"/>
      <g id="Group_24" data-name="Group 24" transform="translate(10.538 39.045)">
        <path id="Path_13" data-name="Path 13" d="M935.742,3454.862l1.309.415a2.938,2.938,0,0,1-1,1.625,3.15,3.15,0,0,1-3.964-.378,3.481,3.481,0,0,1-.857-2.487,3.654,3.654,0,0,1,.861-2.592,2.954,2.954,0,0,1,2.266-.924,2.778,2.778,0,0,1,1.992.725,2.64,2.64,0,0,1,.684,1.231l-1.336.319a1.381,1.381,0,0,0-1.408-1.121,1.522,1.522,0,0,0-1.206.533,2.618,2.618,0,0,0-.462,1.728,2.8,2.8,0,0,0,.456,1.8,1.48,1.48,0,0,0,1.185.538,1.348,1.348,0,0,0,.925-.342,1.974,1.974,0,0,0,.556-1.075" transform="translate(-931.23 -3450.522)" fill="#fff"/>
        <path id="Path_14" data-name="Path 14" d="M1548.022,3460.614v2.457a1.921,1.921,0,0,1,2.28-.561,1.3,1.3,0,0,1,.535.42,1.54,1.54,0,0,1,.246.565,5.107,5.107,0,0,1,.065.962v2.84h-1.28v-2.558a3.793,3.793,0,0,0-.073-.966.636.636,0,0,0-.258-.326.83.83,0,0,0-.463-.121,1.061,1.061,0,0,0-.57.155.9.9,0,0,0-.367.467,2.785,2.785,0,0,0-.117.923v2.426h-1.281v-6.683Z" transform="translate(-1539.776 -3460.5)" fill="#fff"/>
        <path id="Path_15" data-name="Path 15" d="M2024.912,3616.158a2.624,2.624,0,0,1,.315-1.236,2.165,2.165,0,0,1,.892-.912,2.647,2.647,0,0,1,1.288-.314,2.417,2.417,0,0,1,1.8.713,2.465,2.465,0,0,1,.7,1.8,2.492,2.492,0,0,1-.709,1.821,2.4,2.4,0,0,1-1.784.722,2.806,2.806,0,0,1-1.27-.3,2.071,2.071,0,0,1-.919-.882,2.942,2.942,0,0,1-.315-1.415m1.313.068a1.6,1.6,0,0,0,.342,1.1,1.117,1.117,0,0,0,1.684,0,1.628,1.628,0,0,0,.34-1.113,1.6,1.6,0,0,0-.34-1.094,1.116,1.116,0,0,0-1.684,0,1.6,1.6,0,0,0-.342,1.1" transform="translate(-2012.536 -3611.85)" fill="#fff"/>
        <path id="Path_16" data-name="Path 16" d="M2528.961,3616.158a2.626,2.626,0,0,1,.314-1.236,2.167,2.167,0,0,1,.892-.912,2.647,2.647,0,0,1,1.288-.314,2.416,2.416,0,0,1,1.8.713,2.464,2.464,0,0,1,.7,1.8,2.493,2.493,0,0,1-.708,1.821,2.4,2.4,0,0,1-1.784.722,2.8,2.8,0,0,1-1.27-.3,2.071,2.071,0,0,1-.919-.882,2.945,2.945,0,0,1-.314-1.415m1.313.068a1.605,1.605,0,0,0,.342,1.1,1.117,1.117,0,0,0,1.684,0,1.627,1.627,0,0,0,.34-1.113,1.6,1.6,0,0,0-.34-1.094,1.117,1.117,0,0,0-1.684,0,1.6,1.6,0,0,0-.342,1.1" transform="translate(-2510.881 -3611.85)" fill="#fff"/>
        <path id="Path_17" data-name="Path 17" d="M3019.276,3617.264l1.286-.2a.935.935,0,0,0,.333.568,1.118,1.118,0,0,0,.7.194,1.265,1.265,0,0,0,.748-.183.406.406,0,0,0,.169-.341.337.337,0,0,0-.092-.242,1.009,1.009,0,0,0-.428-.169,6.936,6.936,0,0,1-1.965-.625,1.248,1.248,0,0,1-.574-1.09,1.341,1.341,0,0,1,.5-1.058,2.318,2.318,0,0,1,1.541-.429,2.694,2.694,0,0,1,1.477.324,1.655,1.655,0,0,1,.665.958l-1.208.223a.746.746,0,0,0-.294-.433,1.075,1.075,0,0,0-.618-.15,1.392,1.392,0,0,0-.725.141.3.3,0,0,0-.146.26.283.283,0,0,0,.128.232,4.8,4.8,0,0,0,1.2.36,3.553,3.553,0,0,1,1.429.57,1.183,1.183,0,0,1,.4.952,1.459,1.459,0,0,1-.556,1.144,2.459,2.459,0,0,1-1.645.479,2.705,2.705,0,0,1-1.566-.4,1.846,1.846,0,0,1-.754-1.09" transform="translate(-2995.648 -3611.849)" fill="#fff"/>
        <path id="Path_18" data-name="Path 18" d="M3488.148,3617.106l1.277.214a2.1,2.1,0,0,1-.777,1.069,2.289,2.289,0,0,1-1.33.366,2.166,2.166,0,0,1-1.869-.824,2.772,2.772,0,0,1-.479-1.669,2.673,2.673,0,0,1,.629-1.885,2.073,2.073,0,0,1,1.591-.681,2.15,2.15,0,0,1,1.7.713,3.161,3.161,0,0,1,.6,2.186h-3.209a1.3,1.3,0,0,0,.31.887.972.972,0,0,0,.739.317.791.791,0,0,0,.506-.164,1.013,1.013,0,0,0,.31-.529m.073-1.295a1.237,1.237,0,0,0-.287-.845.925.925,0,0,0-1.359.016,1.185,1.185,0,0,0-.269.83Z" transform="translate(-3456.074 -3611.85)" fill="#fff"/>
        <path id="Path_19" data-name="Path 19" d="M4166.61,3467.3v-5.552h-1.982v-1.131h5.31v1.131h-1.979v5.552Z" transform="translate(-4128.04 -3460.499)" fill="#fff"/>
        <path id="Path_20" data-name="Path 20" d="M4710.908,3460.614v2.457a1.92,1.92,0,0,1,2.279-.561,1.306,1.306,0,0,1,.536.42,1.541,1.541,0,0,1,.246.565,5.118,5.118,0,0,1,.065.962v2.84h-1.28v-2.558a3.765,3.765,0,0,0-.073-.966.631.631,0,0,0-.257-.326.83.83,0,0,0-.463-.121,1.058,1.058,0,0,0-.569.155.9.9,0,0,0-.367.467,2.787,2.787,0,0,0-.116.923v2.426h-1.281v-6.683Z" transform="translate(-4666.872 -3460.5)" fill="#fff"/>
        <path id="Path_21" data-name="Path 21" d="M5184.277,3617.106l1.276.214a2.1,2.1,0,0,1-.777,1.069,2.288,2.288,0,0,1-1.329.366,2.167,2.167,0,0,1-1.869-.824,2.772,2.772,0,0,1-.479-1.669,2.67,2.67,0,0,1,.629-1.885,2.071,2.071,0,0,1,1.591-.681,2.149,2.149,0,0,1,1.7.713,3.159,3.159,0,0,1,.6,2.186h-3.209a1.3,1.3,0,0,0,.31.887.97.97,0,0,0,.739.317.788.788,0,0,0,.506-.164,1.009,1.009,0,0,0,.31-.529m.073-1.295a1.233,1.233,0,0,0-.287-.845.882.882,0,0,0-.666-.29.891.891,0,0,0-.692.305,1.184,1.184,0,0,0-.27.83Z" transform="translate(-5133.009 -3611.85)" fill="#fff"/>
        <path id="Path_22" data-name="Path 22" d="M5872.732,3455.145l1.313-.129a1.6,1.6,0,0,0,.481.971,1.453,1.453,0,0,0,.978.31,1.507,1.507,0,0,0,.983-.276.824.824,0,0,0,.329-.645.611.611,0,0,0-.138-.4,1.114,1.114,0,0,0-.486-.289c-.158-.055-.518-.153-1.081-.292a3.661,3.661,0,0,1-1.522-.661,1.739,1.739,0,0,1-.615-1.345,1.722,1.722,0,0,1,.289-.955,1.818,1.818,0,0,1,.835-.677,3.341,3.341,0,0,1,1.315-.233,2.824,2.824,0,0,1,1.895.552,1.947,1.947,0,0,1,.667,1.472l-1.35.059a1.142,1.142,0,0,0-.371-.74,1.359,1.359,0,0,0-.855-.226,1.541,1.541,0,0,0-.92.242.487.487,0,0,0-.215.414.513.513,0,0,0,.2.406,3.536,3.536,0,0,0,1.24.447,6.578,6.578,0,0,1,1.456.481,1.874,1.874,0,0,1,.738.679,2.107,2.107,0,0,1-.052,2.141,1.916,1.916,0,0,1-.9.746,3.8,3.8,0,0,1-1.453.244,2.894,2.894,0,0,1-1.947-.586,2.545,2.545,0,0,1-.812-1.707" transform="translate(-5816.816 -3450.522)" fill="#fff"/>
        <path id="Path_23" data-name="Path 23" d="M6423.967,3615.281l-1.162-.209a1.808,1.808,0,0,1,.675-1.04,2.468,2.468,0,0,1,1.422-.337,3.063,3.063,0,0,1,1.276.2,1.283,1.283,0,0,1,.591.515,2.655,2.655,0,0,1,.17,1.146l-.013,1.5a5.09,5.09,0,0,0,.062.94,2.746,2.746,0,0,0,.229.65h-1.268q-.05-.128-.123-.378c-.021-.076-.036-.126-.045-.15a2.318,2.318,0,0,1-.7.479,2.019,2.019,0,0,1-.8.159,1.645,1.645,0,0,1-1.178-.406,1.344,1.344,0,0,1-.432-1.025,1.374,1.374,0,0,1,.2-.731,1.281,1.281,0,0,1,.55-.493,4.283,4.283,0,0,1,1.019-.3,6.959,6.959,0,0,0,1.244-.314v-.128a.661.661,0,0,0-.183-.526,1.09,1.09,0,0,0-.688-.157.907.907,0,0,0-.532.135.932.932,0,0,0-.311.471m1.714,1.039a7.984,7.984,0,0,1-.779.2,2.328,2.328,0,0,0-.7.223.532.532,0,0,0-.251.451.629.629,0,0,0,.2.465.7.7,0,0,0,.51.2,1.1,1.1,0,0,0,.661-.229.79.79,0,0,0,.3-.423,2.479,2.479,0,0,0,.051-.625Z" transform="translate(-6360.532 -3611.849)" fill="#fff"/>
        <path id="Path_24" data-name="Path 24" d="M6861.736,3452.479h.711v-.365a2.438,2.438,0,0,1,.13-.912,1.029,1.029,0,0,1,.479-.49,1.842,1.842,0,0,1,.882-.189,3.57,3.57,0,0,1,1.072.164l-.173.894a2.523,2.523,0,0,0-.589-.073.525.525,0,0,0-.4.13.75.75,0,0,0-.121.5v.342h.957v1.007h-.957v3.834h-1.281v-3.834h-.711Z" transform="translate(-6794.627 -3450.523)" fill="#fff"/>
        <path id="Path_25" data-name="Path 25" d="M7156.255,3617.106l1.276.214a2.1,2.1,0,0,1-.777,1.069,2.29,2.29,0,0,1-1.33.366,2.165,2.165,0,0,1-1.868-.824,2.769,2.769,0,0,1-.479-1.669,2.672,2.672,0,0,1,.629-1.885,2.073,2.073,0,0,1,1.591-.681,2.15,2.15,0,0,1,1.7.713,3.157,3.157,0,0,1,.6,2.186h-3.209a1.3,1.3,0,0,0,.31.887.97.97,0,0,0,.739.317.789.789,0,0,0,.506-.164,1.015,1.015,0,0,0,.31-.529m.073-1.295a1.24,1.24,0,0,0-.287-.845.925.925,0,0,0-1.359.016,1.186,1.186,0,0,0-.269.83Z" transform="translate(-7082.672 -3611.85)" fill="#fff"/>
        <path id="Path_26" data-name="Path 26" d="M7605.122,3617.264l1.286-.2a.936.936,0,0,0,.332.568,1.12,1.12,0,0,0,.7.194,1.267,1.267,0,0,0,.748-.183.406.406,0,0,0,.169-.341.337.337,0,0,0-.093-.242,1,1,0,0,0-.428-.169,6.933,6.933,0,0,1-1.965-.625,1.248,1.248,0,0,1-.574-1.09,1.34,1.34,0,0,1,.5-1.058,2.317,2.317,0,0,1,1.541-.429,2.691,2.691,0,0,1,1.477.324,1.659,1.659,0,0,1,.666.958l-1.208.223a.747.747,0,0,0-.295-.433,1.071,1.071,0,0,0-.617-.15,1.391,1.391,0,0,0-.725.141.3.3,0,0,0-.146.26.284.284,0,0,0,.128.232,4.8,4.8,0,0,0,1.2.36,3.556,3.556,0,0,1,1.43.57,1.182,1.182,0,0,1,.4.952,1.459,1.459,0,0,1-.556,1.144,2.458,2.458,0,0,1-1.646.479,2.706,2.706,0,0,1-1.566-.4,1.842,1.842,0,0,1-.754-1.09" transform="translate(-7529.601 -3611.849)" fill="#fff"/>
        <path id="Path_27" data-name="Path 27" d="M8059.832,3474.005v1.021h-.875v1.952a4.674,4.674,0,0,0,.025.69.279.279,0,0,0,.113.162.364.364,0,0,0,.217.064,1.666,1.666,0,0,0,.515-.123l.11.993a2.54,2.54,0,0,1-1.013.191,1.6,1.6,0,0,1-.624-.115.91.91,0,0,1-.408-.3,1.2,1.2,0,0,1-.181-.5,6.253,6.253,0,0,1-.04-.9v-2.111h-.589v-1.021h.589v-.962l1.285-.748v1.709Z" transform="translate(-7976.448 -3472.05)" fill="#fff"/>
      </g>
    </g>
  </g>
</svg>
