<?xml version="1.0" standalone="no"?>
<!DOCTYPE svg PUBLIC "-//W3C//DTD SVG 20010904//EN"
 "http://www.w3.org/TR/2001/REC-SVG-20010904/DTD/svg10.dtd">
<svg version="1.0" xmlns="http://www.w3.org/2000/svg"
 width="512.000000pt" height="512.000000pt" viewBox="0 0 512.000000 512.000000"
 preserveAspectRatio="xMidYMid meet">

<g transform="translate(0.000000,512.000000) scale(0.100000,-0.100000)"
fill="#fff" stroke="none">
<path d="M2315 4748 c-243 -27 -492 -101 -720 -213 -451 -221 -791 -560 -1011
-1010 -221 -452 -280 -946 -173 -1445 47 -218 160 -491 286 -692 l60 -95 -229
76 c-221 73 -230 75 -243 57 -10 -13 -11 -24 -5 -36 13 -25 579 -215 600 -202
11 7 26 86 57 288 50 331 51 350 22 359 -13 4 -26 2 -34 -6 -7 -8 -29 -126
-49 -264 -21 -137 -38 -251 -39 -252 -8 -7 -130 196 -187 312 -191 387 -259
820 -195 1250 137 921 869 1653 1790 1790 551 82 1127 -59 1563 -382 40 -30
79 -56 86 -59 14 -5 46 20 46 36 0 33 -224 182 -415 276 -313 154 -628 226
-973 223 -86 -1 -193 -6 -237 -11z"/>
<path d="M4233 3928 c-10 -13 -93 -560 -93 -610 0 -31 35 -48 55 -27 7 8 29
126 49 264 21 137 38 251 39 252 8 7 130 -196 187 -312 266 -538 290 -1148 69
-1717 -153 -392 -448 -756 -806 -994 -711 -471 -1647 -469 -2352 7 -180 122
-166 115 -185 100 -23 -19 -20 -37 11 -66 59 -55 245 -170 388 -240 334 -164
657 -234 1030 -222 571 17 1089 240 1490 642 726 725 854 1858 308 2727 l-60
95 229 -76 c221 -73 230 -75 243 -57 29 39 6 50 -291 150 -158 53 -290 96
-294 96 -4 0 -12 -6 -17 -12z"/>
<path d="M2535 2588 c-395 -590 -719 -1078 -722 -1085 -7 -18 15 -43 37 -43
13 0 232 320 735 1072 395 590 720 1079 722 1086 7 17 -15 42 -37 42 -13 0
-231 -318 -735 -1072z"/>
<path d="M1983 3478 c-61 -13 -161 -84 -200 -142 -55 -81 -66 -135 -61 -315 5
-182 17 -218 95 -302 56 -60 117 -93 199 -108 146 -27 304 52 372 186 33 63
45 151 40 290 -3 114 -7 135 -31 188 -75 162 -239 243 -414 203z m204 -88 c63
-28 110 -73 139 -135 22 -46 24 -63 24 -211 0 -152 -1 -163 -26 -212 -52 -104
-151 -158 -273 -150 -103 8 -180 59 -229 152 -23 46 -26 64 -30 187 -5 167 8
224 68 292 92 104 206 131 327 77z"/>
<path d="M2980 2509 c-102 -20 -202 -94 -248 -186 -33 -63 -45 -151 -40 -290
4 -113 7 -135 32 -189 34 -77 102 -144 181 -181 52 -24 72 -28 145 -27 69 0
96 5 142 26 72 33 142 103 176 176 26 55 27 63 27 237 0 208 -8 237 -92 326
-56 60 -117 93 -198 108 -65 12 -63 12 -125 0z m176 -88 c59 -27 112 -77 142
-135 23 -46 26 -64 30 -187 5 -171 -8 -224 -73 -297 -61 -68 -121 -96 -205
-96 -113 -1 -209 59 -256 159 -22 46 -24 63 -24 208 0 169 6 199 56 264 27 36
80 73 129 91 49 17 155 14 201 -7z"/>
</g>
</svg>
